<svg width="120" height="120" viewBox="0 0 120 120" fill="none" xmlns="http://www.w3.org/2000/svg">
<path d="M52.7844 91H1.21563C0.893341 90.9996 0.584356 90.8718 0.356461 90.6446C0.128567 90.4173 0.000373851 90.1092 0 89.7879V28.2121C0.000373851 27.8908 0.128567 27.5827 0.356461 27.3554C0.584356 27.1282 0.893341 27.0004 1.21563 27H52.7844C53.1067 27.0004 53.4157 27.1282 53.6435 27.3554C53.8714 27.5827 53.9996 27.8908 54 28.2121V89.7879C53.9996 90.1092 53.8714 90.4173 53.6435 90.6446C53.4157 90.8718 53.1067 90.9996 52.7844 91ZM1.21563 27.4848C1.02226 27.4851 0.836858 27.5618 0.70012 27.6981C0.563382 27.8344 0.486469 28.0193 0.486253 28.2121V89.7879C0.486469 89.9807 0.563382 90.1656 0.70012 90.3019C0.836858 90.4382 1.02226 90.5149 1.21563 90.5152H52.7844C52.9777 90.5149 53.1631 90.4383 53.2999 90.3019C53.4366 90.1656 53.5135 89.9807 53.5137 89.7879V28.2121C53.5135 28.0193 53.4366 27.8344 53.2999 27.6981C53.1631 27.5617 52.9777 27.4851 52.7844 27.4848H1.21563Z" fill="#CACACA"/>
<path d="M118.784 91H67.2156C66.8933 90.9996 66.5844 90.8718 66.3565 90.6446C66.1286 90.4173 66.0004 90.1092 66 89.7879V28.2121C66.0004 27.8908 66.1286 27.5827 66.3565 27.3554C66.5844 27.1282 66.8933 27.0004 67.2156 27H118.784C119.107 27.0004 119.416 27.1282 119.644 27.3554C119.871 27.5827 120 27.8908 120 28.2121V89.7879C120 90.1092 119.871 90.4173 119.644 90.6446C119.416 90.8718 119.107 90.9996 118.784 91ZM67.2156 27.4848C67.0223 27.4851 66.8369 27.5618 66.7001 27.6981C66.5634 27.8344 66.4865 28.0193 66.4863 28.2121V89.7879C66.4865 89.9807 66.5634 90.1656 66.7001 90.3019C66.8369 90.4382 67.0223 90.5149 67.2156 90.5152H118.784C118.978 90.5149 119.163 90.4383 119.3 90.3019C119.437 90.1656 119.514 89.9807 119.514 89.7879V28.2121C119.514 28.0193 119.437 27.8344 119.3 27.6981C119.163 27.5617 118.978 27.4851 118.784 27.4848H67.2156Z" fill="#CACACA"/>
<path d="M46 39H8V63H46V39Z" fill="#48A3F8"/>
<path d="M112 39H74V63H112V39Z" fill="#48A3F8"/>
<path d="M46 71H8V79H46V71Z" fill="#E4E4E4"/>
<path d="M112 71H74V79H112V71Z" fill="#E4E4E4"/>
</svg>
