<svg width="120" height="120" viewBox="0 0 120 120" fill="none" xmlns="http://www.w3.org/2000/svg">
<path d="M29.7215 18H4C1.79086 18 0 19.7909 0 22V50.5849C0 52.794 1.79086 54.5849 4 54.5849H29.7215C31.9307 54.5849 33.7215 52.7941 33.7215 50.5849V22C33.7215 19.7909 31.9307 18 29.7215 18Z" fill="#E6E6E6"/>
<path d="M20 66H4C1.79086 66 0 67.7909 0 70V99C0 101.209 1.79086 103 4 103H20C22.2091 103 24 101.209 24 99V70C24 67.7909 22.2091 66 20 66Z" fill="#E6E6E6"/>
<path d="M84 66H37C34.7909 66 33 67.7909 33 70V99C33 101.209 34.7909 103 37 103H84C86.2091 103 88 101.209 88 99V70C88 67.7909 86.2091 66 84 66Z" fill="#48A3F8"/>
<path d="M72.7215 18H47C44.7909 18 43 19.7909 43 22V50.5849C43 52.794 44.7909 54.5849 47 54.5849H72.7215C74.9307 54.5849 76.7215 52.7941 76.7215 50.5849V22C76.7215 19.7909 74.9307 18 72.7215 18Z" fill="#E6E6E6"/>
<path d="M116 66H101C98.7909 66 97 67.7909 97 70V99C97 101.209 98.7909 103 101 103H116C118.209 103 120 101.209 120 99V70C120 67.7909 118.209 66 116 66Z" fill="#E6E6E6"/>
<path d="M115.722 18H90C87.7909 18 86 19.7909 86 22V50.5849C86 52.794 87.7909 54.5849 90 54.5849H115.722C117.931 54.5849 119.722 52.7941 119.722 50.5849V22C119.722 19.7909 117.931 18 115.722 18Z" fill="#E6E6E6"/>
</svg>
