<svg width="120" height="121" viewBox="0 0 120 121" fill="none" xmlns="http://www.w3.org/2000/svg">
<path d="M32.3494 0H10C7.79086 0 6 1.79086 6 4V28.9264C6 31.1356 7.79086 32.9264 10 32.9264H32.3494C34.5585 32.9264 36.3494 31.1356 36.3494 28.9264V4C36.3494 1.79086 34.5585 0 32.3494 0Z" fill="#48A3F8"/>
<path d="M32.6 43.2H10C7.79086 43.2 6 44.9909 6 47.2V72.5C6 74.7092 7.79086 76.5 10 76.5H32.6C34.8091 76.5 36.6 74.7092 36.6 72.5V47.2C36.6 44.9909 34.8091 43.2 32.6 43.2Z" fill="#E6E6E6"/>
<path d="M71.3002 43.2H48.7002C46.4911 43.2 44.7002 44.9909 44.7002 47.2V72.5C44.7002 74.7092 46.4911 76.5 48.7002 76.5H71.3002C73.5093 76.5 75.3002 74.7092 75.3002 72.5V47.2C75.3002 44.9909 73.5093 43.2 71.3002 43.2Z" fill="#E6E6E6"/>
<path d="M71.0496 0H48.7002C46.4911 0 44.7002 1.79086 44.7002 4V28.9264C44.7002 31.1356 46.4911 32.9264 48.7002 32.9264H71.0496C73.2587 32.9264 75.0496 31.1356 75.0496 28.9264V4C75.0496 1.79086 73.2587 0 71.0496 0Z" fill="#48A3F8"/>
<path d="M110 43.2H87.3999C85.1908 43.2 83.3999 44.9909 83.3999 47.2V72.5C83.3999 74.7092 85.1908 76.5 87.3999 76.5H110C112.209 76.5 114 74.7092 114 72.5V47.2C114 44.9909 112.209 43.2 110 43.2Z" fill="#E6E6E6"/>
<path d="M109.749 0H87.3999C85.1908 0 83.3999 1.79086 83.3999 4V28.9264C83.3999 31.1356 85.1908 32.9264 87.3999 32.9264H109.749C111.958 32.9264 113.749 31.1356 113.749 28.9264V4C113.749 1.79086 111.958 0 109.749 0Z" fill="#48A3F8"/>
<path d="M32.6 86.8596H10C7.79086 86.8596 6 88.6504 6 90.8596V116.16C6 118.369 7.79086 120.16 10 120.16H32.6C34.8091 120.16 36.6 118.369 36.6 116.16V90.8596C36.6 88.6504 34.8091 86.8596 32.6 86.8596Z" fill="#E6E6E6"/>
<path d="M71.3002 86.8596H48.7002C46.4911 86.8596 44.7002 88.6504 44.7002 90.8596V116.16C44.7002 118.369 46.4911 120.16 48.7002 120.16H71.3002C73.5093 120.16 75.3002 118.369 75.3002 116.16V90.8596C75.3002 88.6504 73.5093 86.8596 71.3002 86.8596Z" fill="#E6E6E6"/>
<path d="M110 86.8596H87.3999C85.1908 86.8596 83.3999 88.6504 83.3999 90.8596V116.16C83.3999 118.369 85.1908 120.16 87.3999 120.16H110C112.209 120.16 114 118.369 114 116.16V90.8596C114 88.6504 112.209 86.8596 110 86.8596Z" fill="#E6E6E6"/>
</svg>
