<svg width="120" height="120" viewBox="0 0 120 120" fill="none" xmlns="http://www.w3.org/2000/svg">
<path d="M99 29H21V34H99V29Z" fill="#E6E6E6"/>
<path d="M83.4549 46.5731H21V51.7309H83.4549V46.5731Z" fill="#48A3F8"/>
<path d="M58.6119 64.1099H21V69.2677H58.6119V64.1099Z" fill="#E6E6E6"/>
<path d="M99.4939 81.648H21V86.8058H99.4939V81.648Z" fill="#48A3F8"/>
<path d="M59 99H21V104H59V99Z" fill="#E6E6E6"/>
<path d="M21 15.5C21 15.3674 21.0328 15.2402 21.0912 15.1464C21.1497 15.0527 21.2289 15 21.3116 15H31.6884C31.7711 15 31.8503 15.0527 31.9087 15.1464C31.9672 15.2402 32 15.3674 32 15.5C32 15.6326 31.9672 15.7598 31.9087 15.8536C31.8503 15.9473 31.7711 16 31.6884 16H21.3116C21.2289 16 21.1497 15.9473 21.0913 15.8535C21.0328 15.7598 21 15.6326 21 15.5Z" fill="#48A3F8"/>
<path d="M26.5 26C26.3674 26 26.2402 25.9672 26.1464 25.9088C26.0527 25.8503 26 25.7711 26 25.6884V15.3116C26 15.2289 26.0527 15.1497 26.1464 15.0913C26.2402 15.0328 26.3674 15 26.5 15C26.6326 15 26.7598 15.0328 26.8535 15.0913C26.9473 15.1497 27 15.2289 27 15.3116V25.6884C27 25.7711 26.9473 25.8503 26.8535 25.9087C26.7598 25.9672 26.6326 26 26.5 26Z" fill="#48A3F8"/>
<path d="M117.299 120H2.7014C1.9852 119.999 1.29855 119.76 0.79212 119.334C0.285685 118.907 0.000819364 118.33 0 117.727V2.27273C0.000819364 1.67017 0.285685 1.0925 0.79212 0.666428C1.29855 0.240358 1.9852 0.000689342 2.7014 0H117.299C118.015 0.000689342 118.701 0.240358 119.208 0.666428C119.714 1.0925 119.999 1.67017 120 2.27273V117.727C119.999 118.33 119.714 118.907 119.208 119.334C118.701 119.76 118.015 119.999 117.299 120ZM2.7014 0.909091C2.27167 0.909486 1.85968 1.05328 1.55581 1.30893C1.25195 1.56457 1.08103 1.91119 1.08056 2.27273V117.727C1.08103 118.089 1.25195 118.435 1.55581 118.691C1.85968 118.947 2.27167 119.091 2.7014 119.091H117.299C117.728 119.091 118.14 118.947 118.444 118.691C118.748 118.435 118.919 118.089 118.919 117.727V2.27273C118.919 1.91119 118.748 1.56457 118.444 1.30893C118.14 1.05328 117.728 0.909486 117.299 0.909091H2.7014Z" fill="#CACACA"/>
</svg>
