<svg width="120" height="120" viewBox="0 0 120 120" fill="none" xmlns="http://www.w3.org/2000/svg">
<path d="M101.751 85H42.3802C41.7486 84.9996 41.1432 84.894 40.6969 84.7065C40.2506 84.5191 40 84.2649 40 84C40 83.7351 40.2506 83.4809 40.6969 83.2935C41.1432 83.106 41.7486 83.0004 42.3802 83H101.751C102.082 83.0002 102.4 83.0554 102.634 83.1536C102.868 83.2519 103 83.385 103 83.5239V84.4761C103 84.615 102.868 84.7481 102.634 84.8464C102.4 84.9446 102.082 84.9998 101.751 85Z" fill="#E6E6E6"/>
<path d="M117.299 120H2.7014C1.9852 119.999 1.29857 119.76 0.792136 119.334C0.285704 118.908 0.00083078 118.33 0 117.727V2.27273C0.00083078 1.67018 0.285704 1.09251 0.792136 0.666442C1.29857 0.240374 1.9852 0.000698946 2.7014 0H117.299C118.015 0.000689342 118.701 0.240358 119.208 0.666428C119.714 1.0925 119.999 1.67017 120 2.27273V117.727C119.999 118.33 119.714 118.908 119.208 119.334C118.701 119.76 118.015 119.999 117.299 120ZM2.7014 0.909091C2.27168 0.909495 1.85969 1.0533 1.55582 1.30894C1.25196 1.56458 1.08104 1.91119 1.08056 2.27273V117.727C1.08104 118.089 1.25196 118.435 1.55582 118.691C1.85969 118.947 2.27168 119.091 2.7014 119.091H117.299C117.728 119.091 118.14 118.947 118.444 118.691C118.748 118.435 118.919 118.089 118.919 117.727V2.27273C118.919 1.91119 118.748 1.56457 118.444 1.30893C118.14 1.05328 117.728 0.909486 117.299 0.909091H2.7014Z" fill="#E6E6E6"/>
<path d="M101 15H21C19.8954 15 19 15.8954 19 17V67C19 68.1046 19.8954 69 21 69H101C102.105 69 103 68.1046 103 67V17C103 15.8954 102.105 15 101 15Z" fill="#E6E6E6"/>
<path d="M25.3061 93C25.3046 93 25.3028 93 25.3011 93C25.1389 93.0006 24.9823 93.0543 24.8591 93.1514L23.2877 94.4903C22.2224 95.398 20.5828 94.6409 20.5828 93.2414C20.5828 93.2097 20.576 93.1783 20.5629 93.149C20.5497 93.1197 20.5304 93.0931 20.5061 93.0707C20.4818 93.0483 20.4529 93.0305 20.4211 93.0184C20.3893 93.0063 20.3552 93 20.3208 93H19.262C19.2276 93 19.1935 93.0063 19.1617 93.0184C19.1299 93.0305 19.101 93.0483 19.0767 93.0707C19.0524 93.0931 19.0331 93.1197 19.0199 93.149C19.0067 93.1783 19 93.2097 19 93.2414V101.759C19 101.79 19.0067 101.822 19.0199 101.851C19.0331 101.88 19.0524 101.907 19.0767 101.929C19.101 101.952 19.1299 101.969 19.1617 101.982C19.1935 101.994 19.2276 102 19.262 102H20.3155C20.3851 102 20.4517 101.975 20.5009 101.929C20.5501 101.884 20.5778 101.823 20.5778 101.759C20.5778 100.366 22.208 99.6105 23.2705 100.511L24.8538 101.853C24.9776 101.949 25.1344 102.001 25.296 102C25.48 102.002 25.6575 101.937 25.7895 101.819C25.9215 101.701 25.9972 101.54 26 101.371V93.6483C26.0007 93.5638 25.9833 93.4799 25.9488 93.4016C25.9143 93.3233 25.8634 93.252 25.7989 93.1918C25.7345 93.1316 25.6578 93.0837 25.5732 93.0508C25.4887 93.0179 25.3979 93.0006 25.3061 93Z" fill="#48A3F8"/>
<path d="M101.775 93.0235L101.77 93.0236H100.887C100.858 93.0236 100.829 93.0298 100.801 93.0419C100.774 93.054 100.749 93.0717 100.728 93.0941C100.707 93.1164 100.691 93.143 100.679 93.1722C100.668 93.2014 100.662 93.2327 100.662 93.2643C100.662 94.5743 99.0832 95.2357 98.1495 94.3168L96.9889 93.1746C96.8848 93.0798 96.7533 93.0265 96.6167 93.0237C96.6102 93.0236 96.6049 93.0183 96.6049 93.0118C96.6049 93.0053 96.5996 93 96.5931 93C96.5183 93.001 96.4442 93.0169 96.3748 93.047C96.3017 93.0787 96.2352 93.1255 96.179 93.1847C96.1228 93.2438 96.0781 93.3142 96.0474 93.3919C96.0167 93.4695 96.0006 93.5528 96.0001 93.6371C96 93.6403 96 93.6434 96.0001 93.6466V101.358C96.0001 101.528 96.0633 101.692 96.1759 101.812C96.2885 101.932 96.4412 102 96.6005 102L96.6049 102C96.7451 102.002 96.8814 101.95 96.9889 101.854L98.1442 100.709C99.0773 99.785 100.662 100.446 100.662 101.759C100.662 101.791 100.668 101.822 100.679 101.851C100.691 101.881 100.707 101.907 100.728 101.929C100.749 101.952 100.774 101.97 100.801 101.982C100.829 101.994 100.858 102 100.887 102H101.77C101.8 102.001 101.829 101.995 101.857 101.983C101.884 101.972 101.91 101.955 101.931 101.933C101.952 101.911 101.969 101.885 101.981 101.856C101.993 101.827 101.999 101.796 102 101.764V93.2643C102 93.2327 101.994 93.2014 101.983 93.1722C101.972 93.143 101.955 93.1164 101.934 93.0941C101.913 93.0717 101.888 93.054 101.861 93.0419C101.834 93.0298 101.805 93.0235 101.775 93.0235Z" fill="#48A3F8"/>
<path d="M58.0087 93H55.9913C55.4438 93 55 93.4255 55 93.9504V101.05C55 101.575 55.4438 102 55.9913 102H58.0087C58.5562 102 59 101.575 59 101.05V93.9504C59 93.4255 58.5562 93 58.0087 93Z" fill="#48A3F8"/>
<path d="M63.0124 93H60.9876C60.7257 93 60.4745 93.1001 60.2893 93.2784C60.1041 93.4566 60 93.6983 60 93.9504V101.05C60 101.302 60.1041 101.543 60.2893 101.722C60.4745 101.9 60.7257 102 60.9876 102H63.0124C63.2743 102 63.5255 101.9 63.7107 101.722C63.8959 101.543 64 101.302 64 101.05V93.9504C64 93.6983 63.8959 93.4566 63.7107 93.2784C63.5255 93.1001 63.2743 93 63.0124 93Z" fill="#48A3F8"/>
<path d="M39.0051 87C38.4118 87.001 37.8315 86.8261 37.3376 86.4973C36.8437 86.1685 36.4583 85.7006 36.2303 85.1528C36.0023 84.605 35.9419 84.0019 36.0566 83.4198C36.1714 82.8376 36.4562 82.3026 36.875 81.8823C37.2939 81.462 37.828 81.1754 38.4097 81.0587C38.9914 80.9419 39.5947 81.0003 40.1433 81.2264C40.6919 81.4525 41.1611 81.8362 41.4916 82.329C41.822 82.8218 41.999 83.4015 42 83.9949V84C42 84.7948 41.6846 85.557 41.1231 86.1195C40.5616 86.682 39.7999 86.9986 39.0051 87Z" fill="#48A3F8"/>
<path d="M39.5837 85H19.7934C19.5829 84.9996 19.3811 84.894 19.2323 84.7065C19.0835 84.5191 19 84.2649 19 84C19 83.7351 19.0835 83.4809 19.2323 83.2935C19.3811 83.106 19.5829 83.0004 19.7934 83H39.5837C39.6941 83.0002 39.7999 83.0554 39.8779 83.1536C39.956 83.2519 39.9999 83.385 40 83.5239V84.4761C39.9999 84.615 39.956 84.7481 39.8779 84.8464C39.7999 84.9446 39.6941 84.9998 39.5837 85Z" fill="#48A3F8"/>
</svg>
