<svg width="121" height="120" viewBox="0 0 121 120" fill="none" xmlns="http://www.w3.org/2000/svg">
<path d="M37.8125 0H8C3.58172 0 0 3.58172 0 8V41.7025C0 46.1208 3.58171 49.7025 7.99999 49.7025H37.8124C42.2307 49.7025 45.8124 46.1208 45.8124 41.7025V8C45.8124 3.58172 42.2307 0 37.8125 0Z" fill="#E6E6E6"/>
<path d="M103.203 0H73.3901C68.9719 0 65.3901 3.58172 65.3901 8V41.7025C65.3901 46.1208 68.9718 49.7025 73.3901 49.7025H103.203C107.621 49.7025 111.203 46.1208 111.203 41.7025V8C111.203 3.58172 107.621 0 103.203 0Z" fill="#E6E6E6"/>
<path d="M37.8125 61.6987H8C3.58172 61.6987 0 65.2804 0 69.6987V103.401C0 107.819 3.58171 111.401 7.99999 111.401H37.8124C42.2307 111.401 45.8124 107.82 45.8124 103.401V69.6987C45.8124 65.2805 42.2307 61.6987 37.8125 61.6987Z" fill="#E6E6E6"/>
<path d="M103.203 61.6987H73.3901C68.9719 61.6987 65.3901 65.2804 65.3901 69.6987V103.401C65.3901 107.819 68.9718 111.401 73.3901 111.401H103.203C107.621 111.401 111.203 107.82 111.203 103.401V69.6987C111.203 65.2805 107.621 61.6987 103.203 61.6987Z" fill="#E6E6E6"/>
<path d="M76.4631 74.4727L84.8335 71.1633L85.8069 87.7096C85.8069 87.7096 87.5587 92.7707 86.9749 94.7175C86.9749 94.7175 87.3641 98.0268 86.3907 98.2214C85.4173 98.416 82.6914 98.8056 82.4987 98.6106C82.3061 98.4157 82.3041 97.8319 82.3041 97.8319C82.3041 97.8319 80.3574 99.1944 80.1628 100.752C80.1628 100.752 71.9869 103.282 71.7923 100.946C71.5977 98.6103 75.8801 96.6635 75.8801 96.6635L79.1894 91.6024L76.4631 74.4727Z" fill="#3F3D56"/>
<path d="M94.1781 74.4727L102.547 71.1633L103.521 87.7096C103.521 87.7096 105.273 92.7707 104.689 94.7175C104.689 94.7175 105.078 98.0268 104.105 98.2214C103.131 98.416 100.405 98.8056 100.213 98.6106C100.02 98.4157 100.018 97.8319 100.018 97.8319C100.018 97.8319 98.0712 99.1944 97.8766 100.752C97.8766 100.752 89.7008 103.282 89.5062 100.946C89.3116 98.6103 93.5939 96.6635 93.5939 96.6635L96.9033 91.6024L94.1781 74.4727Z" fill="#3F3D56"/>
<path d="M94.996 7.57676C94.996 7.57676 93.2138 12.5569 95.2789 14.8027L93.5571 20.7189C93.5571 20.7189 99.6741 39.0698 97.9266 41.6331C97.9266 41.6331 91.4019 44.8954 78.3511 40.4678L83.6523 19.9032L82.8951 11.2229L83.9436 7.14478L86.2738 6.91357C86.2738 6.91357 84.8757 12.1566 87.439 12.9723C90.0024 13.7881 92.5029 7.0446 92.5029 7.0446L94.996 7.57676Z" fill="#3F3D56"/>
<path d="M12.6858 39.7248L14.935 40.645L25.67 26.5364L29.0437 43.0985L31.2929 42.6897C32.7356 28.4107 33.9133 13.8466 32.4686 6.95821L24.1363 6.60022L20.3538 18.6657L18.5133 26.8447L12.6858 39.7248Z" fill="#3F3D56"/>
<path d="M33.5022 73.0515C32.8305 72.2457 31.6764 71.8099 30.5678 71.5744C30.6009 71.4735 27.1964 70.7706 27.1382 70.9155L25.855 69.8936L21.9133 71.9405L19.698 70.4326L18.6691 70.798C18.7111 70.6165 15.4746 71.1767 15.4746 71.1767C14.8581 71.1991 14.0666 71.2376 13.183 71.3058C10.0875 71.544 9.84937 79.5603 9.84937 79.5603C11.2736 78.9777 12.7922 78.6597 14.3305 78.622L15.1671 102.095C19.4703 101.726 23.9834 102.155 28.66 103.206L30.8533 81.7849L35.9618 79.7984C35.9618 79.7984 35.0894 74.957 33.5022 73.0515Z" fill="#3F3D56"/>
<path d="M45.7837 58.4277C50.6386 58.4277 54.5743 54.492 54.5743 49.6371C54.5743 44.7822 50.6386 40.8466 45.7837 40.8466C40.9288 40.8466 36.9932 44.7822 36.9932 49.6371C36.9932 54.492 40.9288 58.4277 45.7837 58.4277Z" fill="#48A3F8"/>
<path d="M49.4341 48.8989H46.4453V45.9101C46.4453 45.8177 46.4271 45.7263 46.3918 45.6409C46.3564 45.5556 46.3046 45.4781 46.2393 45.4128C46.174 45.3475 46.0965 45.2957 46.0111 45.2603C45.9258 45.225 45.8344 45.2068 45.742 45.2068C45.6497 45.2068 45.5582 45.225 45.4729 45.2603C45.3876 45.2957 45.31 45.3475 45.2447 45.4128C45.1794 45.4781 45.1276 45.5556 45.0923 45.6409C45.0569 45.7263 45.0387 45.8177 45.0387 45.9101V48.8989H42.05C41.9576 48.8989 41.8661 48.9171 41.7808 48.9524C41.6955 48.9877 41.618 49.0396 41.5527 49.1049C41.4874 49.1702 41.4356 49.2477 41.4002 49.333C41.3649 49.4184 41.3467 49.5098 41.3467 49.6022C41.3467 49.6945 41.3649 49.786 41.4002 49.8713C41.4356 49.9566 41.4874 50.0342 41.5527 50.0995C41.618 50.1648 41.6955 50.2166 41.7808 50.2519C41.8661 50.2873 41.9576 50.3055 42.05 50.3055H45.0388V53.2942C45.0388 53.3866 45.0569 53.4781 45.0923 53.5634C45.1276 53.6487 45.1794 53.7262 45.2447 53.7915C45.31 53.8568 45.3876 53.9087 45.4729 53.944C45.5582 53.9793 45.6497 53.9975 45.742 53.9975C45.9286 53.9975 46.1074 53.9234 46.2393 53.7915C46.3712 53.6597 46.4453 53.4808 46.4453 53.2942V50.3054H49.434C49.5264 50.3054 49.6179 50.2872 49.7032 50.2519C49.7885 50.2166 49.866 50.1648 49.9313 50.0994C49.9966 50.0341 50.0485 49.9566 50.0838 49.8713C50.1191 49.786 50.1373 49.6945 50.1373 49.6021C50.1373 49.5098 50.1191 49.4183 50.0838 49.333C50.0485 49.2477 49.9966 49.1701 49.9313 49.1048C49.866 49.0395 49.7885 48.9877 49.7032 48.9524C49.6179 48.917 49.5264 48.8989 49.4341 48.8989Z" fill="white"/>
<path d="M45.7837 120C50.6386 120 54.5743 116.064 54.5743 111.21C54.5743 106.355 50.6386 102.419 45.7837 102.419C40.9288 102.419 36.9932 106.355 36.9932 111.21C36.9932 116.064 40.9288 120 45.7837 120Z" fill="#48A3F8"/>
<path d="M49.4341 110.471H46.4453V107.483C46.4453 107.39 46.4271 107.299 46.3918 107.213C46.3564 107.128 46.3046 107.051 46.2393 106.985C46.174 106.92 46.0965 106.868 46.0111 106.833C45.9258 106.797 45.8344 106.779 45.742 106.779C45.6497 106.779 45.5582 106.797 45.4729 106.833C45.3876 106.868 45.31 106.92 45.2447 106.985C45.1794 107.051 45.1276 107.128 45.0923 107.213C45.0569 107.299 45.0387 107.39 45.0387 107.483V110.471H42.05C41.9576 110.471 41.8661 110.49 41.7808 110.525C41.6955 110.56 41.618 110.612 41.5527 110.677C41.4874 110.743 41.4356 110.82 41.4002 110.906C41.3649 110.991 41.3467 111.082 41.3467 111.175C41.3467 111.267 41.3649 111.358 41.4002 111.444C41.4356 111.529 41.4874 111.607 41.5527 111.672C41.618 111.737 41.6955 111.789 41.7808 111.824C41.8661 111.86 41.9576 111.878 42.05 111.878H45.0388V114.867C45.0388 114.959 45.0569 115.051 45.0923 115.136C45.1276 115.221 45.1794 115.299 45.2447 115.364C45.31 115.429 45.3876 115.481 45.4729 115.517C45.5582 115.552 45.6497 115.57 45.742 115.57C45.9286 115.57 46.1074 115.496 46.2393 115.364C46.3712 115.232 46.4453 115.053 46.4453 114.867V111.878H49.434C49.5264 111.878 49.6179 111.86 49.7032 111.824C49.7885 111.789 49.866 111.737 49.9313 111.672C49.9966 111.607 50.0485 111.529 50.0838 111.444C50.1191 111.358 50.1373 111.267 50.1373 111.175C50.1373 111.082 50.1191 110.991 50.0838 110.906C50.0485 110.82 49.9966 110.743 49.9313 110.677C49.866 110.612 49.7885 110.56 49.7032 110.525C49.6179 110.49 49.5264 110.471 49.4341 110.471Z" fill="white"/>
<path d="M111.292 119.615C116.147 119.615 120.083 115.679 120.083 110.824C120.083 105.969 116.147 102.034 111.292 102.034C106.437 102.034 102.502 105.969 102.502 110.824C102.502 115.679 106.437 119.615 111.292 119.615Z" fill="#48A3F8"/>
<path d="M114.943 110.086H111.954V107.097C111.954 107.005 111.936 106.913 111.9 106.828C111.865 106.743 111.813 106.665 111.748 106.6C111.683 106.534 111.605 106.483 111.52 106.447C111.434 106.412 111.343 106.394 111.251 106.394C111.158 106.394 111.067 106.412 110.981 106.447C110.896 106.483 110.819 106.534 110.753 106.6C110.688 106.665 110.636 106.743 110.601 106.828C110.565 106.913 110.547 107.005 110.547 107.097V110.086H107.559C107.466 110.086 107.375 110.104 107.289 110.139C107.204 110.175 107.127 110.227 107.061 110.292C106.996 110.357 106.944 110.435 106.909 110.52C106.873 110.605 106.855 110.697 106.855 110.789C106.855 110.882 106.873 110.973 106.909 111.058C106.944 111.144 106.996 111.221 107.061 111.286C107.127 111.352 107.204 111.404 107.289 111.439C107.375 111.474 107.466 111.492 107.559 111.492H110.547V114.481C110.547 114.574 110.565 114.665 110.601 114.75C110.636 114.836 110.688 114.913 110.753 114.979C110.819 115.044 110.896 115.096 110.981 115.131C111.067 115.166 111.158 115.185 111.251 115.185C111.437 115.185 111.616 115.11 111.748 114.979C111.88 114.847 111.954 114.668 111.954 114.481V111.492H114.943C115.035 111.492 115.126 111.474 115.212 111.439C115.297 111.404 115.375 111.352 115.44 111.286C115.505 111.221 115.557 111.144 115.592 111.058C115.628 110.973 115.646 110.882 115.646 110.789C115.646 110.697 115.628 110.605 115.592 110.52C115.557 110.435 115.505 110.357 115.44 110.292C115.375 110.227 115.297 110.175 115.212 110.139C115.126 110.104 115.035 110.086 114.943 110.086Z" fill="white"/>
<path d="M111.292 58.4277C116.147 58.4277 120.083 54.492 120.083 49.6371C120.083 44.7822 116.147 40.8466 111.292 40.8466C106.437 40.8466 102.502 44.7822 102.502 49.6371C102.502 54.492 106.437 58.4277 111.292 58.4277Z" fill="#48A3F8"/>
<path d="M114.943 48.8989H111.954V45.9101C111.954 45.8177 111.936 45.7263 111.9 45.6409C111.865 45.5556 111.813 45.4781 111.748 45.4128C111.683 45.3475 111.605 45.2957 111.52 45.2603C111.434 45.225 111.343 45.2068 111.251 45.2068C111.158 45.2068 111.067 45.225 110.981 45.2603C110.896 45.2957 110.819 45.3475 110.753 45.4128C110.688 45.4781 110.636 45.5556 110.601 45.6409C110.565 45.7263 110.547 45.8177 110.547 45.9101V48.8989H107.559C107.466 48.8989 107.375 48.9171 107.289 48.9524C107.204 48.9877 107.127 49.0396 107.061 49.1049C106.996 49.1702 106.944 49.2477 106.909 49.333C106.873 49.4184 106.855 49.5098 106.855 49.6022C106.855 49.6945 106.873 49.786 106.909 49.8713C106.944 49.9566 106.996 50.0342 107.061 50.0995C107.127 50.1648 107.204 50.2166 107.289 50.2519C107.375 50.2873 107.466 50.3055 107.559 50.3055H110.547V53.2942C110.547 53.3866 110.565 53.4781 110.601 53.5634C110.636 53.6487 110.688 53.7262 110.753 53.7915C110.819 53.8568 110.896 53.9087 110.981 53.944C111.067 53.9793 111.158 53.9975 111.251 53.9975C111.437 53.9975 111.616 53.9234 111.748 53.7915C111.88 53.6597 111.954 53.4808 111.954 53.2942V50.3054H114.943C115.035 50.3054 115.126 50.2872 115.212 50.2519C115.297 50.2166 115.375 50.1648 115.44 50.0994C115.505 50.0341 115.557 49.9566 115.592 49.8713C115.628 49.786 115.646 49.6945 115.646 49.6021C115.646 49.5098 115.628 49.4183 115.592 49.333C115.557 49.2477 115.505 49.1701 115.44 49.1048C115.375 49.0395 115.297 48.9877 115.212 48.9524C115.126 48.917 115.035 48.8989 114.943 48.8989Z" fill="white"/>
</svg>
