<svg width="120" height="120" viewBox="0 0 120 120" fill="none" xmlns="http://www.w3.org/2000/svg">
<path d="M1.15704 0C0.518913 0 0 0.518913 0 1.15704V19.0911C0 19.7292 0.518913 20.2481 1.15704 20.2481C1.79516 20.2481 2.31407 19.7292 2.31407 19.0911V1.15704C2.31407 0.518913 1.79516 0 1.15704 0Z" fill="#3F3D56"/>
<path d="M12.4966 17.2811C16.4787 17.2811 19.7068 14.1209 19.7068 10.2227C19.7068 6.32454 16.4787 3.16443 12.4966 3.16443C8.51451 3.16443 5.28638 6.32454 5.28638 10.2227C5.28638 14.1209 8.51451 17.2811 12.4966 17.2811Z" fill="#48A3F8"/>
<path d="M12.4966 67.0684C16.4787 67.0684 19.7068 63.9083 19.7068 60.0101C19.7068 56.1119 16.4787 52.9518 12.4966 52.9518C8.51451 52.9518 5.28638 56.1119 5.28638 60.0101C5.28638 63.9083 8.51451 67.0684 12.4966 67.0684Z" fill="#48A3F8"/>
<path d="M12.4966 117.068C16.4787 117.068 19.7068 113.908 19.7068 110.01C19.7068 106.112 16.4787 102.952 12.4966 102.952C8.51451 102.952 5.28638 106.112 5.28638 110.01C5.28638 113.908 8.51451 117.068 12.4966 117.068Z" fill="#48A3F8"/>
<path d="M1.15704 49.7524C0.518913 49.7524 0 50.2714 0 50.9095V68.8435C0 69.4816 0.518913 70.0006 1.15704 70.0006C1.79516 70.0006 2.31407 69.4816 2.31407 68.8435V50.9095C2.31407 50.2714 1.79516 49.7524 1.15704 49.7524Z" fill="#3F3D56"/>
<path d="M81.6083 57.7812H36.0465C34.4834 57.7812 33.2117 56.6979 33.2117 55.3665C33.2117 54.0351 34.4834 52.9518 36.0465 52.9518H81.6083C83.1714 52.9518 84.4431 54.0351 84.4431 55.3665C84.4431 56.6979 83.1714 57.7812 81.6083 57.7812Z" fill="#F2F2F2"/>
<path d="M81.6083 8.78116H36.0465C34.4834 8.78116 33.2117 7.69789 33.2117 6.36647C33.2117 5.03505 34.4834 3.95178 36.0465 3.95178H81.6083C83.1714 3.95178 84.4431 5.03505 84.4431 6.36647C84.4431 7.69789 83.1714 8.78116 81.6083 8.78116Z" fill="#F2F2F2"/>
<path d="M117.165 65.954H36.0465C34.4834 65.954 33.2117 64.8707 33.2117 63.5393C33.2117 62.2079 34.4834 61.1246 36.0465 61.1246H117.165C118.728 61.1246 120 62.2079 120 63.5393C120 64.8707 118.728 65.954 117.165 65.954Z" fill="#F2F2F2"/>
<path d="M117.165 16.954H36.0465C34.4834 16.954 33.2117 15.8707 33.2117 14.5393C33.2117 13.2079 34.4834 12.1246 36.0465 12.1246H117.165C118.728 12.1246 120 13.2079 120 14.5393C120 15.8707 118.728 16.954 117.165 16.954Z" fill="#F2F2F2"/>
<path d="M1.15704 99.7257C0.518913 99.7257 0 100.245 0 100.883V118.817C0 119.455 0.518913 119.974 1.15704 119.974C1.79516 119.974 2.31407 119.455 2.31407 118.817V100.883C2.31407 100.245 1.79516 99.7257 1.15704 99.7257Z" fill="#3F3D56"/>
<path d="M81.6083 107.534H36.0465C34.4834 107.534 33.2117 106.45 33.2117 105.119C33.2117 103.788 34.4834 102.704 36.0465 102.704H81.6083C83.1714 102.704 84.4431 103.788 84.4431 105.119C84.4431 106.45 83.1714 107.534 81.6083 107.534Z" fill="#F2F2F2"/>
<path d="M117.165 115.706H36.0465C34.4834 115.706 33.2117 114.623 33.2117 113.292C33.2117 111.96 34.4834 110.877 36.0465 110.877H117.165C118.728 110.877 120 111.96 120 113.292C120 114.623 118.728 115.706 117.165 115.706Z" fill="#F2F2F2"/>
</svg>
