<svg width="120" height="120" viewBox="0 0 120 120" fill="none" xmlns="http://www.w3.org/2000/svg">
<path d="M117.299 120H2.7014C1.9852 119.999 1.29855 119.76 0.79212 119.334C0.285685 118.907 0.000819364 118.33 0 117.727V2.27273C0.000819364 1.67017 0.285685 1.0925 0.79212 0.666428C1.29855 0.240358 1.9852 0.000689342 2.7014 0H117.299C118.015 0.000689342 118.701 0.240358 119.208 0.666428C119.714 1.0925 119.999 1.67017 120 2.27273V117.727C119.999 118.33 119.714 118.907 119.208 119.334C118.701 119.76 118.015 119.999 117.299 120ZM2.7014 0.909091C2.27167 0.909486 1.85968 1.05328 1.55581 1.30893C1.25195 1.56457 1.08103 1.91119 1.08056 2.27273V117.727C1.08103 118.089 1.25195 118.435 1.55581 118.691C1.85968 118.947 2.27167 119.091 2.7014 119.091H117.299C117.728 119.091 118.14 118.947 118.444 118.691C118.748 118.435 118.919 118.089 118.919 117.727V2.27273C118.919 1.91119 118.748 1.56457 118.444 1.30893C118.14 1.05328 117.728 0.909486 117.299 0.909091H2.7014Z" fill="#CACACA"/>
<path d="M60 64C72.7025 64 83 53.7025 83 41C83 28.2975 72.7025 18 60 18C47.2975 18 37 28.2975 37 41C37 53.7025 47.2975 64 60 64Z" fill="white"/>
<path d="M60 18C55.451 18 51.0042 19.3489 47.2219 21.8762C43.4396 24.4035 40.4916 27.9956 38.7508 32.1983C37.01 36.401 36.5545 41.0255 37.4419 45.4871C38.3294 49.9486 40.52 54.0468 43.7366 57.2634C46.9532 60.4801 51.0514 62.6706 55.5129 63.5581C59.9745 64.4455 64.599 63.99 68.8017 62.2492C73.0044 60.5084 76.5965 57.5604 79.1238 53.7781C81.6511 49.9958 83 45.549 83 41C83 34.9 80.5768 29.0499 76.2634 24.7365C71.9501 20.4232 66.1 18 60 18ZM60 24.9001C61.3647 24.9001 62.6988 25.3048 63.8335 26.063C64.9682 26.8212 65.8526 27.8988 66.3749 29.1597C66.8971 30.4205 67.0338 31.8079 66.7675 33.1464C66.5013 34.4849 65.8441 35.7144 64.8791 36.6794C63.9141 37.6444 62.6846 38.3015 61.3461 38.5678C60.0076 38.834 58.6203 38.6974 57.3594 38.1751C56.0986 37.6529 55.021 36.7685 54.2628 35.6338C53.5046 34.499 53.0999 33.165 53.0999 31.8003C53.0999 30.8941 53.2784 29.9968 53.6251 29.1597C53.9719 28.3225 54.4801 27.5618 55.1209 26.9211C55.7616 26.2804 56.5223 25.7721 57.3594 25.4254C58.1966 25.0786 59.0939 24.9001 60 24.9001ZM60 58.1172C57.2742 58.1048 54.5926 57.4275 52.1877 56.1442C49.7829 54.8608 47.7275 53.0102 46.1998 50.7527C46.3101 46.1528 55.3995 43.6203 60 43.6203C64.6005 43.6203 73.6893 46.1528 73.8002 50.7527C72.271 53.0088 70.2153 54.8586 67.8109 56.1421C65.4064 57.4256 62.7255 58.1041 60 58.1191V58.1172Z" fill="#48A3F8"/>
<rect x="18" y="74" width="84" height="8" rx="4" fill="#D9D9D9"/>
<rect x="18" y="90" width="84" height="8" rx="4" fill="#D9D9D9"/>
</svg>
