<svg width="120" height="120" viewBox="0 0 120 120" fill="none" xmlns="http://www.w3.org/2000/svg">
<path d="M112.548 0H7.45179C5.47666 0.00395858 3.58355 0.796889 2.18691 2.2052C0.790282 3.61351 0.00392576 5.52244 0 7.51409V112.486C0.00206775 114.478 0.78782 116.388 2.18485 117.797C3.58189 119.206 5.47609 119.998 7.45179 120H112.548C114.524 119.998 116.418 119.206 117.815 117.797C119.212 116.388 119.998 114.478 120 112.486V7.51409C119.998 5.52187 119.212 3.61185 117.815 2.20313C116.418 0.79442 114.524 0.00208737 112.548 0ZM119.123 112.486C119.121 114.244 118.428 115.929 117.195 117.172C115.963 118.415 114.291 119.114 112.548 119.116H7.45179C5.70861 119.114 4.03744 118.415 2.80483 117.172C1.57222 115.929 0.878802 114.244 0.876681 112.486V7.51409C0.879373 5.75652 1.57297 4.0717 2.80546 2.82891C4.03795 1.58612 5.70879 0.886725 7.45179 0.88401H112.548C114.291 0.886149 115.963 1.58536 117.195 2.82828C118.428 4.0712 119.121 5.75634 119.123 7.51409V112.486Z" fill="#E6E6E6"/>
<path d="M104.477 41H15.5229C14.5886 41 13.6925 40.6313 13.0318 39.9749C12.3712 39.3185 12 38.4283 12 37.5C12 36.5717 12.3712 35.6815 13.0318 35.0251C13.6925 34.3687 14.5886 34 15.5229 34H104.477C105.411 34 106.307 34.3687 106.968 35.0251C107.629 35.6815 108 36.5717 108 37.5C108 38.4283 107.629 39.3185 106.968 39.9749C106.307 40.6313 105.411 41 104.477 41Z" fill="#E6E6E6"/>
<path d="M78.5825 26H41.4175C40.5111 26 39.6419 25.6313 39.001 24.9749C38.3601 24.3185 38 23.4283 38 22.5C38 21.5717 38.3601 20.6815 39.001 20.0251C39.6419 19.3687 40.5111 19 41.4175 19H78.5825C79.4889 19 80.3581 19.3687 80.999 20.0251C81.6399 20.6815 82 21.5717 82 22.5C82 23.4283 81.6399 24.3185 80.999 24.9749C80.3581 25.6313 79.4889 26 78.5825 26Z" fill="#48A3F8"/>
<path d="M54.4272 62H15.5728C14.6252 62 13.7165 61.6313 13.0465 60.9749C12.3764 60.3185 12 59.4283 12 58.5C12 57.5717 12.3764 56.6815 13.0465 56.0251C13.7165 55.3687 14.6252 55 15.5728 55H54.4272C55.3748 55 56.2835 55.3687 56.9535 56.0251C57.6236 56.6815 58 57.5717 58 58.5C58 59.4283 57.6236 60.3185 56.9535 60.9749C56.2835 61.6313 55.3748 62 54.4272 62Z" fill="#E6E6E6"/>
<path d="M54.4272 78H15.5728C14.6252 78 13.7165 77.5786 13.0465 76.8284C12.3764 76.0783 12 75.0609 12 74C12 72.9391 12.3764 71.9217 13.0465 71.1716C13.7165 70.4214 14.6252 70 15.5728 70H54.4272C55.3748 70 56.2835 70.4214 56.9535 71.1716C57.6236 71.9217 58 72.9391 58 74C58 75.0609 57.6236 76.0783 56.9535 76.8284C56.2835 77.5786 55.3748 78 54.4272 78Z" fill="#E6E6E6"/>
<path d="M54.4272 93H15.5728C14.6252 93 13.7165 92.6313 13.0465 91.9749C12.3764 91.3185 12 90.4283 12 89.5C12 88.5717 12.3764 87.6815 13.0465 87.0251C13.7165 86.3687 14.6252 86 15.5728 86H54.4272C55.3748 86 56.2835 86.3687 56.9535 87.0251C57.6236 87.6815 58 88.5717 58 89.5C58 90.4283 57.6236 91.3185 56.9535 91.9749C56.2835 92.6313 55.3748 93 54.4272 93Z" fill="#E6E6E6"/>
<path d="M101 65C104.866 65 108 62.0899 108 58.5C108 54.9102 104.866 52 101 52C97.134 52 94 54.9102 94 58.5C94 62.0899 97.134 65 101 65Z" fill="#48A3F8"/>
<path d="M100.348 61C100.193 61.0002 100.041 60.9524 99.9167 60.8637L99.909 60.8582L98.283 59.6763C98.1309 59.5655 98.0313 59.4018 98.0062 59.2213C97.9811 59.0408 98.0325 58.8582 98.1491 58.7136C98.2657 58.5691 98.438 58.4745 98.628 58.4507C98.818 58.4269 99.0101 58.4757 99.1622 58.5865L100.215 59.3539L102.704 56.2687C102.762 56.1972 102.834 56.1372 102.916 56.0921C102.998 56.047 103.089 56.0177 103.183 56.0059C103.277 55.9941 103.372 56 103.464 56.0233C103.556 56.0466 103.642 56.0868 103.717 56.1416L103.702 56.1622L103.718 56.1418C103.869 56.2527 103.969 56.4163 103.994 56.5968C104.019 56.7772 103.968 56.9597 103.851 57.1042L100.924 60.7314C100.856 60.815 100.769 60.8826 100.669 60.929C100.57 60.9755 100.46 60.9995 100.349 60.9992L100.348 61Z" fill="white"/>
<path d="M101 81C104.866 81 108 77.866 108 74C108 70.134 104.866 67 101 67C97.134 67 94 70.134 94 74C94 77.866 97.134 81 101 81Z" fill="#48A3F8"/>
<path d="M100.348 77C100.193 77.0003 100.041 76.9429 99.9167 76.8364L99.909 76.8298L98.283 75.4115C98.2076 75.3457 98.1445 75.2636 98.097 75.1699C98.0495 75.0763 98.0187 74.9728 98.0062 74.8656C97.9938 74.7583 98 74.6493 98.0245 74.5448C98.049 74.4402 98.0914 74.3422 98.1491 74.2564C98.2069 74.1705 98.2789 74.0984 98.361 74.0443C98.4432 73.9902 98.5339 73.955 98.628 73.9408C98.722 73.9267 98.8176 73.9338 98.9093 73.9617C99.001 73.9897 99.0869 74.038 99.1622 74.1038L100.215 75.0247L102.704 71.3225C102.762 71.2367 102.834 71.1646 102.916 71.1105C102.998 71.0564 103.089 71.0213 103.183 71.0071C103.277 70.9929 103.372 71 103.464 71.028C103.556 71.0559 103.642 71.1042 103.717 71.17L103.702 71.1946L103.718 71.1701C103.869 71.3032 103.969 71.4996 103.994 71.7161C104.019 71.9326 103.968 72.1516 103.851 72.3251L100.924 76.6777C100.856 76.778 100.769 76.8591 100.669 76.9149C100.57 76.9706 100.46 76.9994 100.349 76.999L100.348 77Z" fill="white"/>
<path d="M101 96C104.866 96 108 93.0898 108 89.5C108 85.9102 104.866 83 101 83C97.134 83 94 85.9102 94 89.5C94 93.0898 97.134 96 101 96Z" fill="#48A3F8"/>
<path d="M100.348 92C100.192 92.0002 100.041 91.9524 99.9163 91.8637L99.9085 91.8582L98.2824 90.6763C98.1305 90.5654 98.0312 90.4018 98.0062 90.2214C97.9812 90.041 98.0326 89.8585 98.1491 89.7141C98.2657 89.5697 98.4378 89.4751 98.6276 89.4512C98.8175 89.4273 99.0096 89.4759 99.1617 89.5865L100.215 90.3539L102.704 87.2687C102.762 87.1972 102.834 87.1372 102.916 87.0921C102.998 87.047 103.089 87.0177 103.183 87.0059C103.277 86.9941 103.372 87 103.464 87.0233C103.556 87.0466 103.642 87.0868 103.717 87.1416L103.702 87.1622L103.717 87.1418C103.869 87.2527 103.969 87.4163 103.994 87.5968C104.019 87.7772 103.968 87.9597 103.851 88.1042L100.923 91.7314C100.856 91.815 100.769 91.8826 100.669 91.9291C100.569 91.9755 100.46 91.9995 100.349 91.9992L100.348 92Z" fill="white"/>
</svg>
