<svg width="120" height="120" viewBox="0 0 120 120" fill="none" xmlns="http://www.w3.org/2000/svg">
<path d="M24.5 53C33.6127 53 41 45.6127 41 36.5C41 27.3873 33.6127 20 24.5 20C15.3873 20 8 27.3873 8 36.5C8 45.6127 15.3873 53 24.5 53Z" fill="#48A3F8"/>
<path d="M31.3518 35.1144H25.7418V29.5044C25.7418 29.3311 25.7077 29.1594 25.6413 28.9992C25.575 28.8391 25.4777 28.6936 25.3552 28.571C25.2326 28.4484 25.0871 28.3512 24.9269 28.2848C24.7667 28.2185 24.5951 28.1843 24.4217 28.1843C24.2484 28.1843 24.0767 28.2185 23.9166 28.2848C23.7564 28.3512 23.6109 28.4484 23.4883 28.571C23.3657 28.6936 23.2685 28.8391 23.2021 28.9992C23.1358 29.1594 23.1017 29.3311 23.1017 29.5044V35.1144H17.4917C17.3183 35.1144 17.1466 35.1486 16.9865 35.2149C16.8263 35.2812 16.6808 35.3785 16.5583 35.5011C16.4357 35.6236 16.3384 35.7692 16.2721 35.9293C16.2058 36.0895 16.1716 36.2611 16.1716 36.4345C16.1716 36.6078 16.2058 36.7795 16.2721 36.9397C16.3384 37.0998 16.4357 37.2454 16.5583 37.3679C16.6808 37.4905 16.8263 37.5878 16.9865 37.6541C17.1466 37.7204 17.3183 37.7546 17.4917 37.7546H23.1017V43.3646C23.1017 43.5379 23.1358 43.7096 23.2022 43.8698C23.2685 44.0299 23.3658 44.1754 23.4883 44.298C23.6109 44.4206 23.7564 44.5178 23.9166 44.5842C24.0767 44.6505 24.2484 44.6847 24.4218 44.6847C24.7719 44.6847 25.1076 44.5456 25.3552 44.298C25.6028 44.0505 25.7418 43.7147 25.7418 43.3646V37.7546H31.3517C31.5251 37.7546 31.6967 37.7204 31.8569 37.6541C32.017 37.5877 32.1626 37.4905 32.2852 37.3679C32.4077 37.2453 32.505 37.0998 32.5713 36.9396C32.6376 36.7795 32.6718 36.6078 32.6718 36.4344C32.6718 36.2611 32.6376 36.0894 32.5713 35.9293C32.505 35.7691 32.4077 35.6236 32.2852 35.501C32.1626 35.3784 32.017 35.2812 31.8569 35.2149C31.6967 35.1485 31.5251 35.1144 31.3518 35.1144Z" fill="white"/>
<rect x="8" y="75" width="103" height="27" rx="13.5" fill="#48A3F8"/>
<path d="M87.5 32.4C89.1481 32.4 90.7288 31.7468 91.8942 30.5841C93.0596 29.4213 93.7143 27.8443 93.7143 26.2C93.7143 24.5557 93.0596 22.9787 91.8942 21.8159C90.7288 20.6532 89.1481 20 87.5 20C85.8519 20 84.2712 20.6532 83.1058 21.8159C81.9404 22.9787 81.2857 24.5557 81.2857 26.2C81.2857 27.8443 81.9404 29.4213 83.1058 30.5841C84.2712 31.7468 85.8519 32.4 87.5 32.4ZM73 51C73 49.1002 73.3751 47.219 74.1037 45.4638C74.8324 43.7087 75.9005 42.1139 77.247 40.7705C78.5934 39.4272 80.1919 38.3616 81.9511 37.6345C83.7103 36.9075 85.5958 36.5333 87.5 36.5333C89.4042 36.5333 91.2897 36.9075 93.0489 37.6345C94.8081 38.3616 96.4066 39.4272 97.753 40.7705C99.0995 42.1139 100.168 43.7087 100.896 45.4638C101.625 47.219 102 49.1002 102 51H73Z" fill="white"/>
</svg>
