<svg width="120" height="120" viewBox="0 0 120 120" fill="none" xmlns="http://www.w3.org/2000/svg">
<path d="M113.709 43H45.2913C43.6227 43 42.0225 42.1572 40.8427 40.6569C39.6628 39.1566 39 37.1217 39 35C39 32.8783 39.6628 30.8434 40.8427 29.3431C42.0225 27.8428 43.6227 27 45.2913 27H113.709C115.377 27 116.978 27.8428 118.157 29.3431C119.337 30.8434 120 32.8783 120 35C120 37.1217 119.337 39.1566 118.157 40.6569C116.978 42.1572 115.377 43 113.709 43Z" fill="#E4E4E4"/>
<path d="M14.9291 49.8583C23.1743 49.8583 29.8582 43.1743 29.8582 34.9291C29.8582 26.684 23.1743 20 14.9291 20C6.68401 20 0 26.684 0 34.9291C0 43.1743 6.68401 49.8583 14.9291 49.8583Z" fill="#48A3F8"/>
<path d="M29.3582 81.9291C29.3582 89.8981 22.8981 96.3583 14.9291 96.3583C6.96015 96.3583 0.5 89.8981 0.5 81.9291C0.5 73.9602 6.96015 67.5 14.9291 67.5C22.8981 67.5 29.3582 73.9601 29.3582 81.9291Z" stroke="#E4E4E4"/>
<path d="M13.45 40.6242C13.1141 40.6248 12.7872 40.5161 12.5184 40.3147L12.5018 40.3021L8.99324 37.6182C8.66558 37.3665 8.45124 36.9949 8.39735 36.5852C8.34347 36.1755 8.45441 35.7612 8.70583 35.4332C8.95724 35.1053 9.32854 34.8906 9.73817 34.8363C10.1478 34.7819 10.5622 34.8924 10.8905 35.1435L13.163 36.8862L18.5332 29.8802C18.6577 29.7177 18.813 29.5814 18.9902 29.479C19.1675 29.3766 19.3631 29.3101 19.566 29.2833C19.7689 29.2565 19.9751 29.2699 20.1728 29.3228C20.3705 29.3757 20.5559 29.467 20.7183 29.5915L20.6854 29.6382L20.7197 29.5919C21.0474 29.8437 21.2618 30.2153 21.3158 30.6251C21.3699 31.0348 21.2591 31.4492 21.0079 31.7774L14.6915 40.0143C14.5453 40.2041 14.3575 40.3577 14.1424 40.4632C13.9273 40.5686 13.6908 40.6231 13.4513 40.6224L13.45 40.6242Z" fill="white"/>
<path d="M104.929 96.8583C113.174 96.8583 119.858 90.1743 119.858 81.9291C119.858 73.684 113.174 67 104.929 67C96.684 67 90 73.684 90 81.9291C90 90.1743 96.684 96.8583 104.929 96.8583Z" fill="#48A3F8"/>
<path d="M103.45 87.6242C103.114 87.6248 102.787 87.5161 102.518 87.3147L102.502 87.3021L98.9932 84.6182C98.6656 84.3665 98.4512 83.9949 98.3974 83.5852C98.3435 83.1755 98.4544 82.7612 98.7058 82.4332C98.9572 82.1053 99.3285 81.8906 99.7382 81.8363C100.148 81.7819 100.562 81.8924 100.89 82.1435L103.163 83.8862L108.533 76.8802C108.658 76.7177 108.813 76.5814 108.99 76.479C109.167 76.3766 109.363 76.3101 109.566 76.2833C109.769 76.2565 109.975 76.2699 110.173 76.3228C110.371 76.3757 110.556 76.467 110.718 76.5915L110.685 76.6382L110.72 76.5919C111.047 76.8437 111.262 77.2153 111.316 77.6251C111.37 78.0348 111.259 78.4492 111.008 78.7774L104.691 87.0143C104.545 87.2041 104.357 87.3577 104.142 87.4632C103.927 87.5686 103.691 87.6231 103.451 87.6224L103.45 87.6242Z" fill="white"/>
<path d="M75.0607 83.0607C75.6464 82.4749 75.6464 81.5251 75.0607 80.9393L65.5147 71.3934C64.9289 70.8076 63.9792 70.8076 63.3934 71.3934C62.8076 71.9792 62.8076 72.9289 63.3934 73.5147L71.8787 82L63.3934 90.4853C62.8076 91.0711 62.8076 92.0208 63.3934 92.6066C63.9792 93.1924 64.9289 93.1924 65.5147 92.6066L75.0607 83.0607ZM45 83.5H74V80.5H45V83.5Z" fill="#E4E4E4"/>
</svg>
