<svg width="121" height="120" viewBox="0 0 121 120" fill="none" xmlns="http://www.w3.org/2000/svg">
<path d="M113.486 26.8137H110.875V24.2026C110.875 24.1219 110.859 24.042 110.828 23.9675C110.798 23.8929 110.752 23.8252 110.695 23.7681C110.638 23.7111 110.571 23.6658 110.496 23.635C110.421 23.6041 110.342 23.5882 110.261 23.5882C110.18 23.5882 110.1 23.6041 110.026 23.635C109.951 23.6658 109.883 23.7111 109.826 23.7681C109.769 23.8252 109.724 23.8929 109.693 23.9675C109.662 24.042 109.646 24.1219 109.646 24.2026V26.8137H107.035C106.955 26.8137 106.875 26.8296 106.8 26.8605C106.726 26.8914 106.658 26.9366 106.601 26.9937C106.544 27.0507 106.499 27.1184 106.468 27.193C106.437 27.2675 106.421 27.3474 106.421 27.4281C106.421 27.5088 106.437 27.5887 106.468 27.6633C106.499 27.7378 106.544 27.8055 106.601 27.8626C106.658 27.9196 106.726 27.9649 106.8 27.9958C106.875 28.0266 106.955 28.0425 107.035 28.0425H109.646V30.6536C109.646 30.7343 109.662 30.8142 109.693 30.8888C109.724 30.9633 109.769 31.031 109.826 31.0881C109.883 31.1452 109.951 31.1904 110.026 31.2213C110.1 31.2522 110.18 31.2681 110.261 31.2681C110.424 31.2681 110.58 31.2033 110.695 31.0881C110.811 30.9729 110.875 30.8166 110.875 30.6536V28.0425H113.486C113.567 28.0425 113.647 28.0266 113.721 27.9957C113.796 27.9649 113.864 27.9196 113.921 27.8626C113.978 27.8055 114.023 27.7378 114.054 27.6632C114.085 27.5887 114.101 27.5088 114.101 27.4281C114.101 27.3474 114.085 27.2675 114.054 27.193C114.023 27.1184 113.978 27.0507 113.921 26.9936C113.864 26.9366 113.796 26.8913 113.721 26.8605C113.647 26.8296 113.567 26.8137 113.486 26.8137Z" fill="white"/>
<rect x="14.7625" y="16.4083" width="104.873" height="20.9425" stroke="#E4E4E4"/>
<rect x="14.5" y="38.5" width="105" height="81" stroke="#E4E4E4"/>
<path d="M111.738 53H21.5176C20.5404 53 19.7483 53.7921 19.7483 54.7693C19.7483 55.7464 20.5404 56.5386 21.5176 56.5386H111.738C112.715 56.5386 113.507 55.7464 113.507 54.7693C113.507 53.7921 112.715 53 111.738 53Z" fill="#E4E4E4"/>
<path d="M88.7435 25.7824H21.5176C20.5404 25.7824 19.7483 26.5746 19.7483 27.5517C19.7483 28.5288 20.5404 29.321 21.5176 29.321H88.7435C89.7207 29.321 90.5128 28.5288 90.5128 27.5517C90.5128 26.5746 89.7207 25.7824 88.7435 25.7824Z" fill="#E4E4E4"/>
<path d="M92.9964 65.4367H21.5734C20.5654 65.4367 19.7483 66.2538 19.7483 67.2618C19.7483 68.2698 20.5654 69.0869 21.5734 69.0869H92.9964C94.0044 69.0869 94.8215 68.2698 94.8215 67.2618C94.8215 66.2538 94.0044 65.4367 92.9964 65.4367Z" fill="#48A3F8"/>
<path d="M63.1341 77.8477H21.5734C20.5654 77.8477 19.7483 78.6648 19.7483 79.6728C19.7483 80.6808 20.5654 81.4979 21.5734 81.4979H63.1341C64.1421 81.4979 64.9592 80.6808 64.9592 79.6728C64.9592 78.6648 64.1421 77.8477 63.1341 77.8477Z" fill="#E4E4E4"/>
<path d="M112.276 90.2596H21.5734C20.5654 90.2596 19.7483 91.0767 19.7483 92.0847C19.7483 93.0926 20.5654 93.9098 21.5734 93.9098H112.276C113.284 93.9098 114.101 93.0926 114.101 92.0847C114.101 91.0767 113.284 90.2596 112.276 90.2596Z" fill="#48A3F8"/>
<path d="M63.6565 102.54H21.5176C20.5404 102.54 19.7483 103.332 19.7483 104.309C19.7483 105.286 20.5404 106.078 21.5176 106.078H63.6565C64.6336 106.078 65.4258 105.286 65.4258 104.309C65.4258 103.332 64.6336 102.54 63.6565 102.54Z" fill="#E4E4E4"/>
<path d="M13.9883 27.9767C21.7139 27.9767 27.9767 21.7139 27.9767 13.9883C27.9767 6.26279 21.7139 0 13.9883 0C6.26279 0 0 6.26279 0 13.9883C0 21.7139 6.26279 27.9767 13.9883 27.9767Z" fill="#48A3F8"/>
<path d="M13.714 23.5882C14.6229 23.5882 15.3597 22.8514 15.3597 21.9425C15.3597 21.0336 14.6229 20.2968 13.714 20.2968C12.8052 20.2968 12.0684 21.0336 12.0684 21.9425C12.0684 22.8514 12.8052 23.5882 13.714 23.5882Z" fill="white"/>
<path d="M13.4062 4.93717C12.1882 4.94939 11.0229 5.44192 10.1585 6.30995C9.294 7.17798 8.79855 8.35298 8.77755 9.58489C8.77722 9.60847 8.77708 9.77428 8.7771 9.99114C8.77712 10.3091 8.90199 10.614 9.12426 10.8389C9.34653 11.0637 9.64798 11.19 9.96233 11.1901C10.2769 11.19 10.5786 11.0635 10.801 10.8385C11.0233 10.6135 11.1482 10.3083 11.1482 9.99007V9.9893C11.1481 9.84178 11.148 9.73968 11.148 9.73341C11.1479 9.33869 11.2494 8.95074 11.4425 8.60774C11.6356 8.26473 11.9137 7.97848 12.2493 7.77714C12.585 7.5758 12.9667 7.46631 13.3568 7.45943C13.747 7.45256 14.1322 7.54854 14.4746 7.73794C14.817 7.92733 15.1047 8.20362 15.3095 8.53962C15.5143 8.87561 15.6291 9.25975 15.6426 9.65423C15.6561 10.0487 15.5679 10.44 15.3866 10.7895C15.2052 11.139 14.9371 11.4348 14.6085 11.6477L14.6089 11.6482C14.6089 11.6482 12.9219 12.7467 12.4076 14.2537L12.408 14.2538C12.3176 14.5625 12.2718 14.8828 12.272 15.2048C12.272 15.3372 12.2797 16.4953 12.2946 17.4352C12.2998 17.7595 12.4308 18.0688 12.6594 18.2963C12.888 18.5237 13.1959 18.6512 13.5165 18.6511C13.677 18.6511 13.836 18.6191 13.9842 18.557C14.1325 18.4948 14.2673 18.4038 14.3807 18.289C14.4942 18.1742 14.5842 18.0379 14.6457 17.8879C14.7071 17.7379 14.7387 17.5771 14.7387 17.4148L14.7386 17.4072C14.7335 16.5464 14.7307 15.544 14.7307 15.4713C14.7307 14.5459 15.6132 13.624 16.3381 13.0227C17.1772 12.3353 17.767 11.3856 18.0149 10.3226C18.0683 10.1035 18.0977 9.87909 18.1027 9.65347C18.1027 9.0341 17.982 8.4208 17.7477 7.84857C17.5134 7.27635 17.1699 6.75642 16.737 6.31845C16.304 5.88049 15.79 5.53308 15.2242 5.29606C14.6585 5.05904 14.0522 4.93704 13.4399 4.93704C13.4286 4.93704 13.4174 4.93709 13.4062 4.93717Z" fill="white"/>
</svg>
