<svg width="120" height="120" viewBox="0 0 120 120" fill="none" xmlns="http://www.w3.org/2000/svg">
<rect x="34" y="22" width="51" height="24" rx="12" fill="#48A3F8"/>
<path d="M48.9291 48.8583C57.1743 48.8583 63.8582 42.1743 63.8582 33.9291C63.8582 25.684 57.1743 19 48.9291 19C40.684 19 34 25.684 34 33.9291C34 42.1743 40.684 48.8583 48.9291 48.8583Z" fill="white"/>
<path d="M104.929 105.858C113.174 105.858 119.858 99.1743 119.858 90.9291C119.858 82.684 113.174 76 104.929 76C96.684 76 90 82.684 90 90.9291C90 99.1743 96.684 105.858 104.929 105.858Z" fill="#48A3F8"/>
<path d="M29.3582 90.9291C29.3582 98.8981 22.8981 105.358 14.9291 105.358C6.96015 105.358 0.5 98.8981 0.5 90.9291C0.5 82.9602 6.96015 76.5 14.9291 76.5C22.8981 76.5 29.3582 82.9601 29.3582 90.9291Z" fill="#222222" stroke="#E4E4E4"/>
<path d="M15 89.2C15.682 89.2 16.336 88.9261 16.8183 88.4385C17.3005 87.9509 17.5714 87.2896 17.5714 86.6C17.5714 85.9104 17.3005 85.2491 16.8183 84.7615C16.336 84.2739 15.682 84 15 84C14.318 84 13.664 84.2739 13.1817 84.7615C12.6995 85.2491 12.4286 85.9104 12.4286 86.6C12.4286 87.2896 12.6995 87.9509 13.1817 88.4385C13.664 88.9261 14.318 89.2 15 89.2ZM9 97C9 96.2033 9.15519 95.4144 9.45672 94.6784C9.75825 93.9423 10.2002 93.2736 10.7574 92.7102C11.3145 92.1469 11.9759 91.7 12.7039 91.3951C13.4319 91.0903 14.2121 90.9333 15 90.9333C15.7879 90.9333 16.5681 91.0903 17.2961 91.3951C18.0241 91.7 18.6855 92.1469 19.2426 92.7102C19.7998 93.2736 20.2417 93.9423 20.5433 94.6784C20.8448 95.4144 21 96.2033 21 97H9Z" fill="white"/>
<path d="M105 89.2C105.682 89.2 106.336 88.9261 106.818 88.4385C107.301 87.9509 107.571 87.2896 107.571 86.6C107.571 85.9104 107.301 85.2491 106.818 84.7615C106.336 84.2739 105.682 84 105 84C104.318 84 103.664 84.2739 103.182 84.7615C102.699 85.2491 102.429 85.9104 102.429 86.6C102.429 87.2896 102.699 87.9509 103.182 88.4385C103.664 88.9261 104.318 89.2 105 89.2ZM99 97C99 96.2033 99.1552 95.4144 99.4567 94.6784C99.7583 93.9423 100.2 93.2736 100.757 92.7102C101.315 92.1469 101.976 91.7 102.704 91.3951C103.432 91.0903 104.212 90.9333 105 90.9333C105.788 90.9333 106.568 91.0903 107.296 91.3951C108.024 91.7 108.685 92.1469 109.243 92.7102C109.8 93.2736 110.242 93.9423 110.543 94.6784C110.845 95.4144 111 96.2033 111 97H99Z" fill="white"/>
<path d="M75.0607 92.0607C75.6464 91.4749 75.6464 90.5251 75.0607 89.9393L65.5147 80.3934C64.9289 79.8076 63.9792 79.8076 63.3934 80.3934C62.8076 80.9792 62.8076 81.9289 63.3934 82.5147L71.8787 91L63.3934 99.4853C62.8076 100.071 62.8076 101.021 63.3934 101.607C63.9792 102.192 64.9289 102.192 65.5147 101.607L75.0607 92.0607ZM45 92.5H74V89.5H45V92.5Z" fill="#E4E4E4"/>
</svg>
