<svg width="150" height="144" viewBox="0 0 150 144" fill="none" xmlns="http://www.w3.org/2000/svg">
<g opacity="0.5">
<path opacity="0.5" d="M38.7109 112.492C38.7109 112.492 66.2554 125.444 77.1827 130.415C85.838 134.352 130.406 146.947 135.716 143.367C141.025 139.787 152.748 129.961 148.878 123.229C145.008 116.497 124.654 104.41 114.92 102.644C105.186 100.878 77.3526 108.906 77.3526 108.906L53.6114 112.983L38.7109 112.492Z" fill="url(#paint0_linear_1173_490)"/>
<path d="M59.1303 54.5822L28.4363 77.1514L36.6204 57.9502L67.3594 38.4354L59.1303 54.5822Z" fill="#8D8D8D"/>
<path d="M36.1094 58.3469L67.359 38.7842V92.1372L38.7135 112.221L36.1094 58.3469Z" fill="#696969"/>
<path d="M67.3594 38.7842L115.275 49.9942V103.367L67.3594 92.1566V38.7842Z" fill="#7E7E7E"/>
<path d="M36.1094 58.3438L85.0671 69.7851V123.158L38.7135 112.513L36.1094 58.3438Z" fill="#BEBEBE"/>
<path d="M84.0234 69.8049L115.273 50.2422V103.595L84.0234 123.158V69.8049Z" fill="#D8DFE6"/>
<mask id="mask0_1173_490" style="mask-type:luminance" maskUnits="userSpaceOnUse" x="84" y="50" width="32" height="74">
<path d="M84.0234 69.8049L115.273 50.2422V103.595L84.0234 123.158V69.8049Z" fill="white"/>
</mask>
<g mask="url(#mask0_1173_490)">
</g>
<path d="M98.0755 85.6584L128.815 66.1436L114.762 50.2422L84.0234 69.757L98.0755 85.6584Z" fill="#ACACAC"/>
<path fill-rule="evenodd" clip-rule="evenodd" d="M107.993 0.018922C106.895 0.354443 84.1714 13.9504 84.1714 13.9504L90.8027 14.4448L95.515 19.6527C95.515 19.6527 109.09 -0.316599 107.993 0.018922Z" fill="#E8EAEB"/>
<mask id="mask1_1173_490" style="mask-type:luminance" maskUnits="userSpaceOnUse" x="84" y="0" width="25" height="20">
<path fill-rule="evenodd" clip-rule="evenodd" d="M107.993 0.018922C106.895 0.354443 84.1714 13.9504 84.1714 13.9504L90.8027 14.4448L95.515 19.6527C95.515 19.6527 109.09 -0.316599 107.993 0.018922Z" fill="white"/>
</mask>
<g mask="url(#mask1_1173_490)">
<path fill-rule="evenodd" clip-rule="evenodd" d="M90.7984 14.4451L107.988 0.0192128L95.5107 19.653L90.7984 14.4451Z" fill="#626262"/>
</g>
<path fill-rule="evenodd" clip-rule="evenodd" d="M104.573 15.7735L96.6045 14.9407L107.994 0.159419L104.573 15.7735Z" fill="#E8EAEB"/>
<path fill-rule="evenodd" clip-rule="evenodd" d="M89.8976 25.6213C90.3955 24.5677 90.8968 23.4771 91.4015 22.3496L92.2254 22.7184C91.7183 23.8515 91.2144 24.9477 90.7139 26.007L89.8976 25.6213ZM86.6533 32.049C87.2035 31.0339 87.7582 29.9707 88.3174 28.8594L89.1238 29.2652C88.5606 30.3845 88.0016 31.4559 87.447 32.4792L86.6533 32.049ZM84.8909 35.1761C84.2494 36.2575 83.6144 37.2709 82.9858 38.2164L83.7376 38.7162C84.3749 37.7575 85.0182 36.7311 85.6674 35.6367L84.8909 35.1761ZM78.5778 43.8406C79.3392 43.0508 80.112 42.1495 80.8959 41.1367L81.6098 41.6892C80.8066 42.727 80.0127 43.6529 79.2277 44.4671L78.5778 43.8406ZM75.9261 46.1733C74.8709 46.9295 73.8432 47.4525 72.8438 47.7449L73.0973 48.6114C74.1999 48.2888 75.3179 47.7198 76.452 46.9071L75.9261 46.1733ZM66.4775 46.2685C67.4703 47.069 68.4796 47.5933 69.5067 47.8462L69.2909 48.7228C68.1294 48.4368 67.0023 47.8514 65.9109 46.9713L66.4775 46.2685ZM64.048 43.7044C63.992 43.6311 63.9362 43.557 63.8804 43.4819C63.1537 42.5037 62.6258 41.5754 62.2892 40.6985L61.4464 41.022C61.8141 41.98 62.3824 42.9792 63.1557 44.0202C63.2139 44.0986 63.2722 44.1759 63.3306 44.2524L64.048 43.7044ZM63.8281 34.6229C62.853 35.4284 62.2258 36.3529 61.97 37.3843L61.0938 37.167C61.399 35.9363 62.1364 34.8494 63.2532 33.9269L63.8281 34.6229ZM66.8458 32.9267C67.8616 32.53 69.0038 32.2065 70.2424 31.9624L70.0677 31.0766C68.7787 31.3308 67.5853 31.6688 66.5174 32.0858L66.8458 32.9267ZM77.3101 31.4459C76.109 31.4032 74.9121 31.423 73.7465 31.5051L73.6831 30.6045C74.8807 30.5202 76.1095 30.4999 77.3422 30.5437L77.3101 31.4459ZM80.8982 31.7623C82.1082 31.9346 83.2789 32.1706 84.3847 32.4664L84.618 31.5943C83.4766 31.289 82.2705 31.0458 81.0254 30.8686L80.8982 31.7623ZM90.7349 35.4415C89.9094 34.7697 88.9022 34.1667 87.7395 33.6426L88.1104 32.8196C89.3411 33.3743 90.415 34.0172 91.3047 34.7413L90.7349 35.4415ZM92.8881 38.1531C93.1058 38.6592 93.2452 39.1863 93.3039 39.7346C93.3661 40.3147 93.3876 40.8977 93.3685 41.4838L94.2708 41.5132C94.2913 40.8852 94.2682 40.2602 94.2016 39.6384C94.1331 38.9997 93.9706 38.3848 93.7173 37.7963L92.8881 38.1531ZM91.4422 48.21C92.0232 47.114 92.4729 46.0296 92.7918 44.9567L93.6572 45.2139C93.3208 46.3456 92.8482 47.4853 92.2398 48.6328L91.4422 48.21ZM89.5321 51.2284C88.8642 52.138 88.1092 53.0549 87.2669 53.9789L87.9341 54.587C88.7973 53.6401 89.5725 52.6987 90.2598 51.7628L89.5321 51.2284ZM82.0831 58.8634C83.0413 58.0701 83.9386 57.2816 84.7749 56.4978L85.3922 57.1565C84.5421 57.9532 83.6309 58.7539 82.6588 59.5588L82.0831 58.8634ZM79.2344 61.0989C78.3065 61.7932 77.3329 62.491 76.3138 63.1923L76.8256 63.936C77.8544 63.2281 78.8376 62.5233 79.7752 61.8217L79.2344 61.0989ZM71.4121 66.3787C72.0535 65.9839 72.6808 65.5902 73.2942 65.1975L73.7809 65.9578C73.163 66.3534 72.5312 66.7499 71.8853 67.1475L71.4121 66.3787Z" fill="#C7D0D9"/>
</g>
<defs>
<linearGradient id="paint0_linear_1173_490" x1="34.6635" y1="116.984" x2="42.676" y2="152.916" gradientUnits="userSpaceOnUse">
<stop stop-color="#C4CDD1"/>
<stop offset="1" stop-color="#C6CFD3" stop-opacity="0.01"/>
</linearGradient>
</defs>
</svg>
